# xmcd
# 
# Track frame offsets:
#     150
#     16740
#     37323
#     52671
#     63924
#     79677
#     96021
#     115224
#     127272
#     136965
#     151854
#     169560
#     184353
#     200490
# 
# Disc length: 2906
# 
# Revision: 2
# Processed by: cddbd v1.5.2PL0 Copyright (c) Steve Scherf et al.
# Submitted via: BonkEnc v1.0.8
# 
DISCID=b60b580e
DTITLE=Various Artist - Coleção Todos Os Sons O Boticário - Sertanejo
DYEAR=2002
DGENRE=Latin
TTITLE0=Ataíde and Alexandre - Agenda Rabiscada (Inédita)
TTITLE1=Daniel - Seus Beijos
TTITLE2=Bruno and Marrone - Dormi Na Praça
TTITLE3=Pena Branca and Xavantinho - Cálix Bento
TTITLE4=Rick and Renner - Enrosca Enrosca
TTITLE5=Cezar and Paulinho - Nóis É Caubói (Nóis É Xiki Nu Úrtimu)
TTITLE6=Chrystian and Ralf - Chora Peito
TTITLE7=Tonico and Tinoco - Moreninha Linda
TTITLE8=Milionário and José Rico - Estrada Da Vida
TTITLE9=Leandro and Leonardo - Anarriê
TTITLE10=Daniel - Quando O Coração Se Apaixona
TTITLE11=João Paulo and Daniel - Eu Me Amarrei
TTITLE12=Almir Sater - Um Violeiro Toca
TTITLE13=Sérgio Reis - Cabocla Tereza
EXTD=
EXTT0=
EXTT1=
EXTT2=
EXTT3=
EXTT4=
EXTT5=
EXTT6=
EXTT7=
EXTT8=
EXTT9=
EXTT10=
EXTT11=
EXTT12=
EXTT13=
PLAYORDER=
